<?xml version="1.0" encoding="iso-8859-1"?>
<!-- Generator: Adobe Illustrator 22.1.0, SVG Export Plug-In . SVG Version: 6.00 Build 0)  -->
<svg version="1.1" xmlns="http://www.w3.org/2000/svg" xmlns:xlink="http://www.w3.org/1999/xlink" x="0px" y="0px"
	 viewBox="0 0 128 128" style="enable-background:new 0 0 128 128;" xml:space="preserve">
<g id="_x32_">
	<path style="fill:#51514C;" d="M71.605,127.5h-15.21c-4.134,0-7.486-3.352-7.486-7.486V91.043h30.182v28.971
		C79.091,124.148,75.739,127.5,71.605,127.5z"/>
	<path style="fill:#B5B5B5;" d="M81.891,111.044H46.109c-0.977,0-1.769-0.792-1.769-1.769v-3.593c0-0.977,0.792-1.769,1.769-1.769
		h35.783c0.977,0,1.769,0.792,1.769,1.769v3.593C83.66,110.252,82.868,111.044,81.891,111.044z M83.66,100.086v-3.593
		c0-0.977-0.792-1.769-1.769-1.769H46.109c-0.977,0-1.769,0.792-1.769,1.769v3.593c0,0.977,0.792,1.769,1.769,1.769h35.783
		C82.868,101.855,83.66,101.063,83.66,100.086z M83.66,118.464v-3.593c0-0.977-0.792-1.769-1.769-1.769H46.109
		c-0.977,0-1.769,0.792-1.769,1.769v3.593c0,0.977,0.792,1.769,1.769,1.769h35.783C82.868,120.233,83.66,119.441,83.66,118.464z"/>
	<path style="fill:#6CAEB7;" d="M99.36,30.089c-1.423-7.176-4.494-13.466-9.645-18.707c-2.55-2.595-5.43-4.705-8.626-6.472
		c-4.642-2.565-9.596-3.958-14.829-4.325C60.909,0.21,55.707,1.08,50.72,3.08c-5.723,2.295-10.64,5.739-14.493,10.578
		c-5.545,6.965-8.297,14.862-8.073,23.84c0.159,6.364,1.828,12.23,5.138,17.596c2.316,3.754,4.813,7.409,6.667,11.413
		c4.288,9.263,6.8,14.179,6.877,24.42h34.247c0.15-3.674,0.439-2.562,1.117-6.168c1.748-9.302,5.02-18.046,10.219-26.006
		c2.932-4.49,5.658-9.023,6.555-14.473C99.753,39.545,100.307,34.867,99.36,30.089z"/>
</g>
<g id="Layer_1">
</g>
</svg>
