<?xml version="1.0" encoding="utf-8"?>
<!-- Generator: Adobe Illustrator 23.0.1, SVG Export Plug-In . SVG Version: 6.00 Build 0)  -->
<svg version="1.1" id="Layer_1" xmlns="http://www.w3.org/2000/svg" xmlns:xlink="http://www.w3.org/1999/xlink" x="0px" y="0px"
	 viewBox="0 0 64 64" style="enable-background:new 0 0 64 64;" xml:space="preserve">
<style type="text/css">
	.st0{fill:#FFEFE4;}
	.st1{fill:#69EBFC;}
	.st2{fill:#EDD4C2;}
	.st3{fill:#CFB6A4;}
	.st4{fill:#D476E2;}
	.st5{fill:#5861C7;}
	.st6{fill:#FF8354;}
	.st7{fill:#6770E6;}
	.st8{fill:#3A43A9;}
	.st9{fill:#B665C2;}
	.st10{fill:#EA82FA;}
	.st11{fill:#5FD4E3;}
	.st12{fill:#69FFFF;}
	.st13{fill:#858EFF;}
	.st14{fill:#FFA171;}
	.st15{fill:#FFF7F2;}
	.st16{fill:#E0734A;}
	.st17{fill:#FFBF8F;}
	.st18{fill:#A1F1FC;}
	.st19{fill:#7DB6C5;}
	.st20{fill:#F0E0D5;}
	.st21{fill:#8F95E6;}
	.st22{fill:#FFAC8C;}
	.st23{fill:#BFFFFC;}
	.st24{fill:#FFFFFF;}
	.st25{fill:#FFDEC7;}
	.st26{fill:#FFA0FF;}
	.st27{fill:#C2552C;}
	.st28{fill:#FFCAAA;}
	.st29{fill:#4E57BD;}
	.st30{fill:#4952B8;}
	.st31{fill:#5D66DC;}
	.st32{fill:#7B84FA;}
	.st33{fill:#BFFFFF;}
</style>
<g>
	<path class="st5" d="M45,57H19c-1.105,0-2-0.895-2-2V9c0-1.105,0.895-2,2-2h26c1.105,0,2,0.895,2,2v46C47,56.105,46.105,57,45,57z"
		/>
	<path class="st7" d="M43,54H21c-0.552,0-1-0.448-1-1V11c0-0.552,0.448-1,1-1h22c0.552,0,1,0.448,1,1v42C44,53.552,43.552,54,43,54z
		"/>
	<rect x="26" y="57" class="st21" width="12" height="7"/>
	<rect x="26" y="62" class="st7" width="12" height="2"/>
	<path class="st7" d="M35,0h-6c-3.866,0-7,3.134-7,7v0h20v0C42,3.134,38.866,0,35,0z"/>
	<path class="st21" d="M29,2h6c3.17,0,5.845,2.109,6.706,5H42c0-3.866-3.134-7-7-7h-6c-3.866,0-7,3.134-7,7h0.294
		C23.155,4.109,25.83,2,29,2z"/>
	<circle class="st6" cx="32" cy="19" r="5"/>
	<g>
		<path class="st5" d="M39,19h-2c0-2.757-2.243-5-5-5s-5,2.243-5,5h-2c0-3.859,3.14-7,7-7S39,15.141,39,19z"/>
	</g>
	<g>
		<path class="st5" d="M39,33h-2c0-2.757-2.243-5-5-5s-5,2.243-5,5h-2c0-3.859,3.14-7,7-7S39,29.141,39,33z"/>
	</g>
	<g>
		<path class="st5" d="M39,47h-2c0-2.757-2.243-5-5-5s-5,2.243-5,5h-2c0-3.859,3.14-7,7-7S39,43.141,39,47z"/>
	</g>
	<circle class="st4" cx="32" cy="33" r="5"/>
	<circle class="st1" cx="32" cy="47" r="5"/>
	<polygon class="st7" points="51,19 47,19 47,12 53,12 	"/>
	<polygon class="st7" points="51,33 47,33 47,26 53,26 	"/>
	<polygon class="st7" points="51,47 47,47 47,40 53,40 	"/>
	<polygon class="st7" points="13,19 17,19 17,12 11,12 	"/>
	<polygon class="st7" points="13,33 17,33 17,26 11,26 	"/>
	<polygon class="st7" points="13,47 17,47 17,40 11,40 	"/>
</g>
</svg>
